Coordinates
version=1
nRows=33
nColumns=33
inDegrees=yes

Units are S.I. units (second, meters, Newtons, ...)
Angles are in degrees.

endheader
time	ground_thorax_rot_x	ground_thorax_rot_y	ground_thorax_rot_z	ground_thorax_tx	ground_thorax_ty	ground_thorax_tz	clav_prot_r	clav_elev_r	scapula_abduction_r	scapula_elevation_r	scapula_upward_rot_r	scapula_winging_r	shoulder_elv_r	plane_of_elev_r	axial_rot_r	elbow_flexion_r	pro_sup_r	wrist_flex_r	wrist_dev_r	clav_prot_l	clav_elev_l	scapula_abduction_l	scapula_elevation_l	scapula_upward_rot_l	scapula_winging_l	shoulder_elv_l	plane_of_elev_l	axial_rot_l	elbow_flexion_l	pro_sup_l	wrist_flex_l	wrist_dev_l	
10.2900	-33.935198	-29.964999	43.835817	15.390628	789.036509	-64.623130	27.634618	-45.000000	36.975082	-45.000000	-45.000000	-2619.633843	-4605.837451	14.453785	-129.698527	1795.719445	-191.485612	21.126747	17.387367	2.071770	30.512024	-28.253941	-45.000000	-45.000000	-5678.345613	-2085.361347	26.269143	45.008375	-8.729912	-304.565653	10.541354	-16.950203	
10.3000	-34.117795	-29.754141	43.525633	12.557741	789.467675	-64.674150	27.614822	-45.000000	36.950326	-45.000000	-45.000000	-2619.793826	-4605.746185	14.479468	-129.715378	1795.650746	-191.826113	21.112042	17.442913	2.041966	30.549123	-28.291017	-45.000000	-45.000000	-5678.232458	-2085.334089	26.261116	44.978158	-8.768252	-304.645340	10.571972	-17.018728	
10.3100	-34.299677	-29.538579	43.209590	9.726758	789.951816	-64.743601	27.592768	-45.000000	36.923931	-45.000000	-45.000000	-2619.949159	-4605.653498	14.507524	-129.744226	1795.583674	-192.167552	21.091413	17.496836	2.015740	30.585247	-28.332968	-45.000000	-45.000000	-5678.116234	-2085.303756	26.256249	44.958453	-8.809770	-304.791525	10.614605	-17.075924	
10.3200	-34.478569	-29.319174	42.891126	6.899191	790.488481	-64.831626	27.569873	-45.000000	36.900239	-45.000000	-45.000000	-2620.102184	-4605.559226	14.538769	-129.789141	1795.516590	-192.503805	21.065710	17.549642	1.991634	30.622574	-28.381263	-45.000000	-45.000000	-5677.996236	-2085.267305	26.252223	44.950496	-8.855366	-305.006860	10.670017	-17.122780	
10.3300	-34.653010	-29.098565	42.570957	4.076594	791.075648	-64.935554	27.546051	-45.000000	36.877453	-45.000000	-45.000000	-2620.253892	-4605.463259	14.574332	-129.850612	1795.452752	-192.823644	21.036687	17.600971	1.969858	30.661175	-28.433755	-45.000000	-45.000000	-5677.872560	-2085.225239	26.250234	44.951670	-8.903596	-305.293896	10.737331	-17.159122	
10.3400	-34.822084	-28.877068	42.247887	1.260663	791.708024	-65.047752	27.520105	-45.000000	36.855340	-45.000000	-45.000000	-2620.403577	-4605.366093	14.617151	-129.935821	1795.396513	-193.105979	21.008552	17.650529	1.950276	30.701407	-28.490944	-45.000000	-45.000000	-5677.744992	-2085.176957	26.250415	44.962508	-8.953466	-305.654537	10.816360	-17.185115	
10.3500	-34.981814	-28.657422	41.923594	-1.546849	792.377073	-65.155229	27.493944	-45.000000	36.834690	-45.000000	-45.000000	-2620.554189	-4605.268976	14.669879	-130.048985	1795.352317	-193.320228	20.988414	17.697216	1.930813	30.742973	-28.551020	-45.000000	-45.000000	-5677.613661	-2085.124100	26.252548	44.982561	-9.005072	-306.089666	10.907467	-17.201146	
10.3600	-35.124852	-28.441523	41.601991	-4.342684	793.061798	-65.227960	27.470020	-45.000000	36.821239	-45.000000	-45.000000	-2620.710935	-4605.172161	14.739384	-130.199862	1795.328374	-193.399376	20.991614	17.738410	1.906274	30.786382	-28.613645	-45.000000	-45.000000	-5677.477735	-2085.065361	26.254740	45.013570	-9.059281	-306.600127	11.011686	-17.207821	
10.3700	-35.241859	-28.231689	41.287108	-7.122222	793.736883	-65.229283	27.450956	-45.000000	36.818272	-45.000000	-45.000000	-2620.877939	-4605.076390	14.832274	-130.399778	1795.337253	-193.265679	21.035153	17.770726	1.872633	30.831027	-28.676086	-45.000000	-45.000000	-5677.338029	-2085.001516	26.256495	45.051996	-9.116173	-307.184120	11.128810	-17.205317	
10.3800	-35.306789	-28.030759	40.987934	-9.875479	794.319169	-65.047096	27.441000	-45.000000	36.832739	-45.000000	-45.000000	-2621.066253	-4604.981228	14.969777	-130.678875	1795.419108	-192.666790	21.172887	17.780923	1.817911	30.874874	-28.731924	-45.000000	-45.000000	-5677.196879	-2084.933960	26.257715	45.090489	-9.179930	-307.848448	11.259066	-17.190411	
10.3900	-35.306323	-27.838754	40.708950	-12.590892	794.762056	-64.614394	27.441150	-45.000000	36.868562	-45.000000	-45.000000	-2621.279887	-4604.887136	15.164329	-131.065799	1795.597407	-191.466933	21.431583	17.765809	1.737827	30.917573	-28.779534	-45.000000	-45.000000	-5677.055481	-2084.862561	26.258052	45.126196	-9.250709	-308.584724	11.399889	-17.162954	
10.4000	-35.115535	-27.681519	40.508394	-15.233524	794.694905	-63.443919	27.482870	-45.000000	36.969813	-45.000000	-45.000000	-2621.583782	-4604.788917	15.509799	-131.675098	1796.038002	-188.543460	22.051827	17.662321	1.569610	30.950592	-28.785382	-45.000000	-45.000000	-5676.914352	-2084.789706	26.251228	45.140380	-9.345640	-309.459080	11.560644	-17.111351	
10.4100	-34.788221	-27.537465	40.357262	-17.784972	794.255451	-61.695631	27.540765	-45.000000	37.114507	-45.000000	-45.000000	-2621.936831	-4604.697364	15.972177	-132.537097	1796.689471	-184.342697	22.922360	17.519156	1.353293	30.989036	-28.770367	-45.000000	-45.000000	-5676.778607	-2084.712369	26.236593	45.149258	-9.454505	-310.396882	11.729755	-17.045765	
10.4200	-34.357948	-27.402877	40.248713	-20.241495	793.561324	-59.512794	27.615488	-45.000000	37.294907	-45.000000	-45.000000	-2622.321961	-4604.618790	16.522348	-133.619390	1797.503214	-179.282580	23.950278	17.370019	1.099044	31.031147	-28.739320	-45.000000	-45.000000	-5676.647070	-2084.630154	26.214508	45.153592	-9.571104	-311.345293	11.898758	-16.974218	
10.4300	-33.994196	-27.244995	40.108624	-22.636778	793.120431	-57.551076	27.666063	-45.000000	37.454611	-45.000000	-45.000000	-2622.651187	-4604.560155	17.031945	-134.755227	1798.253650	-174.981613	24.791413	17.311762	0.889042	31.086063	-28.736252	-45.000000	-45.000000	-5676.518283	-2084.540218	26.192781	45.175233	-9.669733	-312.169617	12.045647	-16.917683	
10.4400	-33.699192	-27.080704	39.946630	-25.000250	792.971104	-55.876329	27.708749	-45.000000	37.598076	-45.000000	-45.000000	-2622.939395	-4604.512272	17.486463	-135.828528	1798.909038	-171.604704	25.435130	17.327205	0.707381	31.140194	-28.751147	-45.000000	-45.000000	-5676.384961	-2084.446337	26.173160	45.199915	-9.750916	-312.878387	12.170716	-16.876861	
10.4500	-33.602215	-26.883163	39.696255	-27.376146	793.481648	-54.979575	27.705002	-45.000000	37.677010	-45.000000	-45.000000	-2623.121153	-4604.473221	17.786400	-136.685626	1799.297411	-170.280420	25.652306	17.463920	0.621817	31.202204	-28.818582	-45.000000	-45.000000	-5676.249652	-2084.349401	26.163566	45.245184	-9.797977	-313.395567	12.261244	-16.863713	
10.4600	-33.657650	-26.673819	39.380251	-29.785758	794.526318	-54.720935	27.680494	-45.000000	37.707702	-45.000000	-45.000000	-2623.234820	-4604.430596	17.959565	-137.273865	1799.458403	-170.595154	25.550139	17.665763	0.595447	31.257777	-28.919501	-45.000000	-45.000000	-5676.106124	-2084.253493	26.166908	45.294573	-9.820411	-313.779316	12.325647	-16.870350	
10.4700	-33.837126	-26.456989	39.002718	-32.233978	796.002207	-54.981070	27.634636	-45.000000	37.697787	-45.000000	-45.000000	-2623.296179	-4604.375561	18.027643	-137.602591	1799.428428	-172.178507	25.209168	17.892633	0.619519	31.309464	-29.048709	-45.000000	-45.000000	-5675.957138	-2084.159786	26.182575	45.352725	-9.823035	-314.066131	12.370741	-16.892411	
10.4800	-33.994773	-26.264629	38.628498	-34.691622	797.471679	-55.201110	27.604322	-45.000000	37.697750	-45.000000	-45.000000	-2623.381965	-4604.300274	18.098200	-137.802741	1799.392228	-173.645244	24.917331	18.051793	0.622496	31.349941	-29.168028	-45.000000	-45.000000	-5675.801974	-2084.070522	26.202639	45.403084	-9.826220	-314.364320	12.416479	-16.915502	
10.4900	-34.134447	-26.082161	38.247782	-37.133733	798.918457	-55.355666	27.574250	-45.000000	37.703069	-45.000000	-45.000000	-2623.475859	-4604.214258	18.170593	-137.955851	1799.357838	-174.966660	24.640694	18.150703	0.621984	31.393862	-29.285775	-45.000000	-45.000000	-5675.649708	-2083.983434	26.224225	45.462434	-9.828362	-314.655167	12.464678	-16.943435	
10.5000	-34.244713	-25.912337	37.871850	-39.541783	800.318132	-55.412952	27.552992	-45.000000	37.721215	-45.000000	-45.000000	-2623.579844	-4604.125685	18.250337	-138.100394	1799.328448	-176.156447	24.337941	18.192971	0.609914	31.441895	-29.399157	-45.000000	-45.000000	-5675.498427	-2083.896628	26.245031	45.532966	-9.830264	-314.931229	12.518468	-16.978974	
10.5100	-34.296111	-25.757290	37.516820	-41.892858	801.577947	-55.270896	27.547083	-45.000000	37.762162	-45.000000	-45.000000	-2623.702209	-4604.042362	18.347753	-138.268041	1799.311997	-177.263300	23.915128	18.154449	0.575591	31.494117	-29.501665	-45.000000	-45.000000	-5675.351286	-2083.810307	26.262367	45.614768	-9.834348	-315.195316	12.582270	-17.022633	
10.5200	-34.274051	-25.616487	37.189413	-44.173019	802.643641	-54.868679	27.555758	-45.000000	37.827380	-45.000000	-45.000000	-2623.845256	-4603.969216	18.470222	-138.485924	1799.311273	-178.337980	23.310204	18.023927	0.514728	31.548633	-29.591834	-45.000000	-45.000000	-5675.208511	-2083.724764	26.276002	45.708583	-9.843155	-315.452567	12.657626	-17.072044	
10.5300	-34.058912	-25.503780	36.946217	-46.307685	803.092570	-53.756099	27.615115	-45.000000	37.948670	-45.000000	-45.000000	-2624.048028	-4603.929860	18.667614	-138.832446	1799.353131	-179.521278	22.148321	17.662396	0.380278	31.604378	-29.645532	-45.000000	-45.000000	-5675.073649	-2083.640636	26.280310	45.799218	-9.866594	-315.728755	12.755737	-17.122871	
10.5400	-33.702344	-25.402355	36.753856	-48.320587	803.068017	-52.079437	27.688320	-45.000000	38.100722	-45.000000	-45.000000	-2624.283067	-4603.918633	18.922476	-139.317452	1799.430191	-180.838168	20.528901	17.126353	0.195781	31.657283	-29.677773	-45.000000	-45.000000	-5674.948632	-2083.555078	26.282800	45.904633	-9.903744	-316.024861	12.868713	-17.168178	
10.5500	-33.243399	-25.307375	36.595124	-50.234056	802.698508	-49.972468	27.772596	-45.000000	38.270553	-45.000000	-45.000000	-2624.539491	-4603.932155	19.222876	-139.918649	1799.535368	-182.294001	18.552526	16.459945	-0.024280	31.706635	-29.695895	-45.000000	-45.000000	-5674.829947	-2083.466821	26.288194	46.031890	-9.950748	-316.341191	12.993570	-17.206515	
10.5600	-32.854903	-25.190260	36.385969	-52.146892	802.560178	-48.046040	27.818327	-45.000000	38.403753	-45.000000	-45.000000	-2624.761376	-4603.948533	19.507892	-140.543703	1799.643183	-183.769739	16.705099	15.860773	-0.213836	31.748828	-29.738012	-45.000000	-45.000000	-5674.706708	-2083.375891	26.314800	46.206698	-9.991374	-316.655085	13.117451	-17.241734	
10.5700	-32.539509	-25.065318	36.140588	-54.068934	802.712326	-46.370554	27.850018	-45.000000	38.515121	-45.000000	-45.000000	-2624.961508	-4603.961734	19.770797	-141.145150	1799.740898	-185.238033	15.052564	15.347331	-0.375929	31.790667	-29.797154	-45.000000	-45.000000	-5674.578309	-2083.283731	26.354478	46.414317	-10.026177	-316.967115	13.244304	-17.277060	
10.5800	-32.424830	-24.913767	35.799055	-56.074351	803.584517	-45.410343	27.826972	-45.000000	38.566530	-45.000000	-45.000000	-2625.098735	-4603.954019	19.961009	-141.651859	1799.805735	-186.585202	13.971962	15.069200	-0.461469	31.830411	-29.901898	-45.000000	-45.000000	-5674.437283	-2083.191992	26.416870	46.667581	-10.043613	-317.260650	13.364314	-17.315763	
10.5900	-32.464566	-24.753358	35.388830	-58.142401	805.053740	-45.049174	27.783058	-45.000000	38.589163	-45.000000	-45.000000	-2625.198846	-4603.929588	20.094487	-142.046973	1799.835317	-187.807279	13.381118	14.986734	-0.492357	31.872698	-30.036875	-45.000000	-45.000000	-5674.283460	-2083.106411	26.491234	46.950712	-10.049488	-317.544976	13.487125	-17.362160	
10.6000	-32.628990	-24.585730	34.927566	-60.256646	807.015911	-45.190181	27.716935	-45.000000	38.587010	-45.000000	-45.000000	-2625.268481	-4603.890433	20.174710	-142.347192	1799.836889	-188.910683	13.206433	15.067433	-0.477643	31.916514	-30.194090	-45.000000	-45.000000	-5674.124273	-2083.025013	26.572848	47.253374	-10.042887	-317.830527	13.607624	-17.410282	
10.6100	-32.762768	-24.443391	34.498619	-62.336192	808.985146	-45.330907	27.672870	-45.000000	38.613740	-45.000000	-45.000000	-2625.355174	-4603.843251	20.243889	-142.616651	1799.823212	-190.012079	13.047914	15.146090	-0.474741	31.967574	-30.329269	-45.000000	-45.000000	-5673.984764	-2082.943825	26.634239	47.545496	-10.041185	-318.150270	13.733001	-17.450361	
